<?xml version="1.0" standalone="no"?>
<!DOCTYPE svg PUBLIC "-//W3C//DTD SVG 20010904//EN"
 "http://www.w3.org/TR/2001/REC-SVG-20010904/DTD/svg10.dtd">
<svg version="1.0" xmlns="http://www.w3.org/2000/svg"
 width="640.000000pt" height="640.000000pt" viewBox="0 0 640.000000 640.000000"
 preserveAspectRatio="xMidYMid meet">
<metadata>
Created by potrace 1.11, written by Peter Selinger 2001-2013
</metadata>
<g transform="translate(0.000000,640.000000) scale(0.100000,-0.100000)"
fill="#000000" stroke="none">
<path d="M763 5741 c-124 -45 -197 -136 -219 -271 -2 -14 -7 -41 -10 -60 -3
-19 -8 -46 -10 -60 -3 -14 -7 -38 -11 -55 -3 -16 -7 -43 -9 -60 -1 -16 -5 -41
-8 -55 -4 -14 -13 -65 -21 -115 -8 -49 -17 -100 -19 -111 -2 -12 -7 -39 -10
-60 -8 -46 -35 -206 -43 -249 -3 -16 -6 -41 -8 -55 -2 -14 -11 -65 -20 -115
-9 -49 -19 -103 -21 -120 -5 -36 -12 -70 -14 -70 -1 0 -3 -16 -5 -35 -2 -19
-6 -46 -8 -60 -8 -50 -19 -116 -23 -135 -3 -11 -7 -36 -9 -55 -3 -19 -8 -46
-11 -58 -3 -13 -7 -43 -10 -65 -3 -23 -8 -49 -11 -57 -3 -8 -7 -33 -9 -55 -2
-22 -8 -62 -14 -90 -5 -27 -12 -63 -15 -80 -2 -16 -7 -41 -9 -55 -3 -14 -8
-41 -10 -60 -3 -19 -7 -44 -10 -55 -2 -11 -7 -40 -11 -65 -4 -25 -9 -52 -10
-60 -10 -57 -18 -108 -21 -127 -1 -12 -5 -36 -9 -53 -4 -17 -8 -41 -10 -53 -1
-12 -7 -49 -14 -82 -6 -33 -12 -76 -15 -95 -2 -19 -7 -46 -10 -60 -3 -14 -8
-43 -11 -65 -3 -22 -7 -47 -10 -55 -2 -8 -6 -33 -9 -55 -3 -22 -8 -51 -11 -65
-7 -33 -12 -65 -20 -120 -4 -25 -12 -76 -20 -114 -22 -119 -12 -209 30 -276
64 -100 150 -150 273 -157 43 -2 83 -6 90 -8 6 -2 12 0 12 6 0 6 4 8 8 5 9 -5
42 -6 227 -7 50 0 95 0 100 0 12 -1 108 0 155 2 19 1 41 1 48 0 6 -1 18 -1 25
-2 13 -1 111 0 167 2 19 1 41 1 48 0 6 -1 18 -1 25 -2 13 -1 111 0 167 2 19 1
41 1 48 0 6 -1 18 -1 25 -2 13 -1 111 0 167 2 19 1 41 1 48 0 29 -2 40 -3 92
-2 30 1 99 0 153 -1 53 -2 97 -1 97 2 0 3 29 3 65 0 35 -3 71 -3 79 0 8 3 51
3 96 0 44 -3 80 -3 80 0 0 3 29 3 65 0 35 -3 71 -3 79 0 8 3 56 3 106 0 49 -3
90 -3 90 1 0 3 25 2 55 -1 30 -3 55 -2 55 3 0 4 4 6 8 3 7 -4 78 -7 122 -5 8
0 69 0 135 0 66 0 127 0 135 0 18 1 112 0 155 -2 17 -1 37 -1 45 0 8 0 40 0
70 0 30 0 62 0 70 0 8 1 31 1 50 0 19 0 42 0 50 0 31 1 118 0 213 -2 53 -1 97
0 97 3 0 3 29 3 65 0 35 -3 71 -3 79 0 8 3 51 3 96 0 44 -3 80 -1 80 3 0 5 4
6 8 3 9 -5 42 -6 227 -7 50 0 95 0 100 0 12 -1 108 0 155 2 19 1 41 1 48 0 6
-1 18 -1 25 -2 13 -1 111 0 167 2 19 1 41 1 48 0 6 -1 18 -1 25 -2 13 -1 111
0 167 2 19 1 41 1 48 0 6 -1 18 -1 25 -2 13 -1 111 0 167 2 19 1 41 1 48 0 29
-2 40 -3 92 -2 30 1 99 0 153 -1 53 -2 97 1 97 5 0 5 4 6 8 3 11 -7 116 -8
213 -3 54 3 91 11 130 29 60 29 123 83 133 116 4 12 11 22 15 22 18 0 43 111
38 168 -5 45 -58 377 -82 502 -2 14 -7 41 -9 60 -3 19 -7 46 -10 60 -3 13 -8
40 -11 60 -3 20 -7 45 -9 57 -6 27 -16 91 -21 128 -3 17 -7 41 -10 55 -12 61
-15 77 -20 115 -3 23 -8 52 -11 65 -6 28 -8 44 -18 110 -4 25 -11 68 -16 95
-11 59 -16 89 -30 170 -5 33 -12 71 -14 85 -3 14 -12 68 -20 120 -9 52 -18
106 -21 120 -8 42 -18 104 -21 130 -1 14 -3 25 -4 25 -2 0 -12 60 -25 145 -2
8 -5 29 -8 45 -7 34 -34 195 -40 240 -3 17 -10 57 -16 90 -6 33 -13 74 -16 90
-3 17 -8 50 -11 74 -3 25 -7 48 -9 51 -2 4 -7 29 -11 56 -7 58 -11 80 -18 102
-3 9 -8 37 -11 62 -2 25 -7 54 -9 65 -8 40 -20 111 -22 130 -8 70 -33 176 -49
210 -28 59 -90 120 -153 152 l-57 28 -2400 2 c-2331 2 -2402 2 -2452 -16z
m528 -621 c19 4 43 4 54 0 10 -3 34 -4 54 0 20 3 57 3 82 0 26 -3 55 -3 65 0
10 4 32 4 49 0 16 -3 41 -4 55 0 13 3 46 3 71 0 26 -3 55 -3 65 0 10 4 32 4
49 0 16 -3 41 -4 55 0 13 3 46 3 72 0 27 -4 48 -4 48 0 0 3 21 3 47 0 55 -6
53 9 28 -215 -2 -22 -7 -74 -10 -115 -4 -41 -9 -83 -11 -94 -2 -12 -6 -54 -9
-96 -4 -41 -8 -86 -10 -100 -5 -33 -13 -109 -20 -190 -6 -71 -15 -144 -19
-147 -1 -2 -52 -3 -112 -3 -60 1 -118 1 -129 0 -47 0 -95 0 -102 1 -5 1 -10 1
-13 0 -13 -5 -130 -5 -130 -1 0 3 -25 5 -55 5 -30 0 -55 -2 -55 -5 0 -3 -48
-4 -107 -3 -121 2 -191 3 -213 2 -58 -2 -108 5 -105 15 2 6 11 58 20 115 9 58
19 114 21 125 2 11 6 36 9 56 3 20 8 47 10 60 3 14 12 66 20 115 8 50 17 101
20 115 2 13 7 42 10 65 3 22 8 47 10 55 4 13 14 79 20 120 1 8 5 34 9 57 4 24
6 46 4 50 -5 11 52 20 87 13 17 -3 46 -3 66 0z m1512 -1 c9 3 52 4 97 1 44 -3
80 -3 80 0 0 3 29 3 65 0 35 -3 71 -3 79 0 8 3 51 3 96 0 44 -3 80 -3 80 0 0
3 29 3 65 0 35 -3 72 -3 82 1 9 3 30 3 47 0 16 -4 54 -4 83 -1 29 3 53 4 53 1
0 -8 136 -5 149 3 17 11 28 -25 35 -109 6 -80 10 -123 21 -222 3 -29 7 -77 10
-105 3 -29 8 -73 10 -98 11 -107 15 -148 20 -195 3 -27 8 -72 10 -100 3 -27 7
-69 10 -93 l5 -44 -80 4 c-44 2 -80 -1 -80 -5 0 -5 -4 -6 -8 -3 -9 5 -52 6
-244 7 -60 0 -114 0 -120 1 -7 0 -31 0 -53 -1 -22 -1 -47 -1 -55 0 -8 1 -40 1
-70 0 -30 0 -62 0 -70 0 -8 1 -31 0 -50 -1 -19 -1 -92 0 -163 2 -70 2 -127 1
-127 -2 0 -3 -29 -3 -65 0 -35 3 -71 3 -80 0 -8 -3 -41 -3 -72 0 l-58 5 1 35
c1 19 4 60 7 90 7 56 12 110 22 210 8 74 15 148 20 190 2 19 6 62 9 95 6 61
11 105 22 210 4 33 7 74 8 90 2 29 5 30 50 32 26 1 50 3 52 6 2 2 24 1 48 -3
23 -3 50 -4 59 -1z m1580 1 c29 0 59 1 67 1 8 -1 33 -1 55 0 38 1 47 0 78 -2
6 -1 37 -1 67 0 30 0 62 0 70 0 8 -1 31 -1 50 0 19 1 42 1 50 0 8 -1 40 -1 70
0 30 0 62 0 70 0 8 -1 31 -1 50 0 19 1 42 1 50 0 14 -1 96 0 168 1 19 0 31 -3
28 -9 -4 -5 -2 -12 4 -16 6 -4 8 -10 5 -15 -3 -4 0 -32 5 -61 16 -84 21 -112
25 -141 2 -15 6 -35 9 -45 3 -10 7 -36 10 -58 3 -22 8 -51 10 -65 9 -45 68
-394 73 -430 2 -19 8 -51 14 -70 5 -19 5 -37 1 -41 -11 -10 -102 -15 -102 -6
0 5 -4 6 -9 2 -8 -4 -193 -7 -261 -4 -8 1 -31 0 -50 -1 -19 -1 -92 0 -163 2
-70 2 -127 -1 -127 -5 0 -5 -4 -6 -8 -3 -8 5 -43 6 -212 7 -46 0 -85 1 -86 2
-4 4 -20 141 -28 247 -3 30 -7 71 -10 90 -2 19 -7 64 -11 100 -3 36 -8 83 -10
105 -3 22 -7 65 -10 95 -3 30 -8 71 -9 90 -2 19 -7 70 -11 112 -4 43 -8 86 -9
95 -3 19 13 35 27 26 4 -3 32 -4 60 -3z m-3111 -1440 c79 1 150 1 158 1 8 0
80 0 160 0 80 0 154 0 165 0 11 0 61 0 112 -1 l92 0 -4 -53 c-4 -45 -10 -108
-20 -197 -1 -14 -6 -56 -9 -95 -4 -38 -9 -88 -11 -110 -3 -22 -7 -60 -10 -85
-3 -25 -7 -65 -9 -90 -17 -164 -22 -215 -31 -315 -5 -44 -9 -89 -11 -100 -1
-11 -3 -32 -3 -46 -1 -26 -3 -27 -63 -28 -35 -1 -91 -3 -126 -4 -34 -1 -62 0
-62 3 0 3 -26 4 -57 3 -32 -1 -58 -2 -58 -3 0 -1 -28 -2 -63 -3 -34 -1 -62 0
-62 3 0 6 -109 4 -116 -2 -2 -3 -24 -2 -49 2 -24 4 -50 3 -57 -1 -6 -4 -15 -6
-19 -4 -6 4 -80 6 -119 4 -8 -1 -28 0 -45 0 -16 1 -74 1 -128 1 -53 -1 -101 2
-107 5 -5 3 -7 15 -4 28 3 12 7 36 10 52 6 38 12 70 14 70 1 0 3 18 4 40 2 22
6 49 9 60 4 11 9 40 12 65 3 25 7 52 10 60 2 8 6 31 9 50 3 19 10 62 16 95 6
33 13 71 15 85 2 14 20 117 39 230 35 207 44 259 45 273 1 4 46 7 101 6 56 -1
104 1 107 5 3 3 9 3 14 0 4 -2 72 -4 151 -4z m1291 0 c75 1 69 1 137 1 30 0
62 0 70 0 8 0 56 0 105 -1 128 -1 253 -1 305 1 25 0 50 1 55 0 6 0 55 0 110 0
209 -2 320 -2 330 -3 6 0 24 1 40 2 17 0 72 1 123 0 51 0 97 2 103 5 5 4 9 -9
10 -27 0 -18 2 -42 4 -53 1 -11 6 -49 9 -85 4 -36 9 -78 11 -95 2 -16 7 -66
10 -110 4 -44 9 -91 11 -105 1 -14 5 -52 8 -85 11 -110 19 -181 32 -300 2 -16
6 -55 8 -85 3 -30 8 -84 12 -119 l7 -64 -27 5 c-14 3 -26 2 -26 -2 0 -5 -8 -6
-17 -4 -26 7 -253 10 -253 4 0 -3 -29 -3 -65 0 -35 3 -71 3 -79 0 -8 -3 -51
-3 -96 0 -44 3 -80 3 -80 0 0 -3 -29 -3 -65 0 -35 3 -71 3 -79 0 -8 -3 -51 -3
-96 0 -44 3 -80 3 -80 0 0 -3 -29 -3 -65 0 -35 3 -71 3 -79 0 -8 -3 -51 -3
-96 0 -44 3 -80 1 -80 -3 0 -5 -4 -6 -8 -3 -9 6 -68 7 -270 6 -79 0 -148 2
-153 6 -6 4 -8 29 -5 63 14 129 18 168 21 201 3 19 7 64 10 100 3 36 7 79 10
95 3 17 7 57 10 90 3 33 7 76 9 95 3 19 7 71 11 115 3 44 8 87 10 95 2 8 7 49
10 90 3 41 7 84 10 95 2 11 4 32 4 47 1 25 24 41 44 30 4 -2 36 -3 70 -2z
m2059 0 c29 0 60 1 68 1 8 0 56 0 105 -1 128 -1 253 -1 305 1 25 0 50 1 55 0
42 -1 212 -2 220 -1 6 1 36 2 67 1 62 -1 58 4 72 -91 3 -19 8 -46 11 -60 2
-14 11 -68 20 -120 22 -132 24 -144 41 -240 9 -47 17 -96 19 -110 8 -51 35
-216 41 -245 7 -38 11 -59 19 -115 3 -25 8 -56 11 -70 16 -72 20 -68 -48 -70
-35 -1 -70 -1 -78 -1 -8 1 -33 1 -55 0 -38 -1 -47 0 -77 2 -7 1 -38 1 -68 0
-30 0 -62 0 -70 0 -8 1 -31 1 -50 0 -19 -1 -42 -1 -50 0 -8 1 -40 1 -70 0 -30
0 -62 0 -70 0 -8 1 -31 1 -50 0 -19 -1 -42 -1 -50 0 -8 1 -40 1 -70 0 -30 0
-62 0 -70 0 -8 1 -31 1 -50 0 -104 -4 -189 -1 -193 6 -5 8 -8 31 -22 178 -3
28 -8 73 -11 100 -7 64 -11 102 -19 195 -4 41 -9 89 -11 105 -2 17 -6 53 -9
80 -2 28 -6 68 -9 90 -5 38 -10 95 -21 215 -3 30 -7 76 -10 102 l-4 47 57 3
c31 2 60 2 64 0 4 -1 31 -2 60 -2z"/>
<path d="M2644 1601 c-2 -2 -22 -4 -44 -3 -45 2 -42 9 -39 -98 1 -25 1 -52 1
-60 -1 -8 -1 -49 -2 -90 l-1 -75 -122 1 c-67 0 -128 3 -135 8 -7 4 -12 4 -12
-1 0 -4 -55 -7 -122 -7 -68 1 -127 -1 -133 -5 -5 -3 -12 -6 -15 -6 -3 0 -18
-9 -33 -19 -47 -32 -72 -100 -67 -181 1 -22 1 -22 0 -108 -1 -31 2 -61 5 -66
3 -5 1 -12 -4 -16 -6 -3 -8 -11 -6 -18 2 -7 6 -36 8 -64 5 -63 42 -118 94
-139 29 -13 208 -14 1196 -12 1112 3 1163 4 1189 22 49 33 73 83 75 161 1 39
3 72 4 75 1 3 1 8 1 11 -1 3 -1 34 -1 70 -1 118 -2 134 -6 169 -3 19 -13 46
-23 59 -48 64 -89 74 -284 70 -7 0 -60 0 -118 1 -58 1 -109 1 -115 0 -5 -1
-29 -2 -52 -1 l-41 1 0 48 c0 26 -1 74 -1 107 0 33 0 67 0 75 0 8 -1 32 -2 53
-2 37 -3 38 -38 37 -20 -1 -38 -1 -41 0 -15 4 -150 4 -150 0 0 -3 -53 -4 -117
-2 -65 2 -136 2 -158 1 -22 0 -46 -1 -52 0 -7 1 -19 1 -25 2 -14 1 -112 0
-168 -2 -19 -1 -39 -1 -45 -1 -48 3 -258 3 -260 0 -2 -2 -34 -1 -70 2 -36 3
-68 4 -71 1z"/>
</g>
</svg>
